# xmcd CD database file
#
# Track frame offsets:
#	150
#	11617
#	24260
#	38563
#	54343
#	77977
#	87621
#	104493
#	116291
#	129644
#	142969
#	152685
#	164660
#	180887
#	190096
#
# Disc length: 2703 seconds
#
# Revision: 0
# Processed by: cddbd v1.5.2PL0 Copyright (c) Steve Scherf et al.
# Submitted via: CDex 1.51
#
DISCID=b60a8d0f
DTITLE=Various Artist - On The Road Again
DYEAR=2006
DGENRE=Country
TTITLE0=On The Road Again - Willie Nelson
TTITLE1=East Bound And Down - Jerry Reed
TTITLE2=I Love A Rainy Night - Eddie Rabbit
TTITLE3=The Gambler - Kenny Rogers
TTITLE4=Dixieland Delight - Alabama
TTITLE5=Theme From "Dukes Of Hazzard" (Good Ol' Boys) - Waylon Jennings
TTITLE6=Smokey Mountain Rain - Ronnie Milsap
TTITLE7=Take This Job And Shove It - Johnny Paycheck
TTITLE8=Southern Nights - Glen Campbell
TTITLE9=Behind Closed Doors - Charlie Rich
TTITLE10=I Ain't Never - Mel Tillis
TTITLE11=Elvira - The Oak Ridge Boys
TTITLE12=Lookin' For Love - Johnny Lee
TTITLE13=Kiss An Angel Good Morning - Charlie Pride
TTITLE14=Tight Fittin' Jeans - Conway Twitty
EXTD=YEAR: 2006
EXTT0=
EXTT1=
EXTT2=
EXTT3=
EXTT4=
EXTT5=
EXTT6=
EXTT7=
EXTT8=
EXTT9=
EXTT10=
EXTT11=
EXTT12=
EXTT13=
EXTT14=
PLAYORDER=
